<mxfile host="drawio-plugin" modified="2024-02-23T12:55:26.623Z" agent="5.0 (Macintosh; Intel Mac OS X 10_15_7) AppleWebKit/537.36 (KHTML, like Gecko) Chrome/98.0.4758.102 Safari/537.36" etag="SXDazAJODhMFqEM3rb7Q" version="20.5.3" type="embed" pages="3"><diagram name="overview" id="ONjV_njWh9pvciGnfAz3"><mxGraphModel dx="875" dy="1232" grid="1" gridSize="10" guides="1" tooltips="1" connect="1" arrows="1" fold="1" page="0" pageScale="1" pageWidth="827" pageHeight="1169" math="0" shadow="0"><root><mxCell id="0"/><mxCell id="1" parent="0"/><mxCell id="fFPUwwNfFdFCcCZWl5Em-8" style="edgeStyle=orthogonalEdgeStyle;rounded=0;orthogonalLoop=1;jettySize=auto;html=1;entryX=0.5;entryY=0;entryDx=0;entryDy=0;" parent="1" source="fFPUwwNfFdFCcCZWl5Em-3" target="fFPUwwNfFdFCcCZWl5Em-4" edge="1"><mxGeometry relative="1" as="geometry"/></mxCell><mxCell id="fFPUwwNfFdFCcCZWl5Em-3" value="개발" style="rounded=0;whiteSpace=wrap;html=1;" parent="1" vertex="1"><mxGeometry x="150" y="-630" width="170" height="90" as="geometry"/></mxCell><mxCell id="fFPUwwNfFdFCcCZWl5Em-9" style="edgeStyle=orthogonalEdgeStyle;rounded=0;orthogonalLoop=1;jettySize=auto;html=1;entryX=0.5;entryY=0;entryDx=0;entryDy=0;" parent="1" source="fFPUwwNfFdFCcCZWl5Em-4" target="fFPUwwNfFdFCcCZWl5Em-5" edge="1"><mxGeometry relative="1" as="geometry"/></mxCell><mxCell id="fFPUwwNfFdFCcCZWl5Em-4" value="빌드" style="rounded=0;whiteSpace=wrap;html=1;" parent="1" vertex="1"><mxGeometry x="150" y="-490" width="170" height="90" as="geometry"/></mxCell><mxCell id="fFPUwwNfFdFCcCZWl5Em-10" style="edgeStyle=orthogonalEdgeStyle;rounded=0;orthogonalLoop=1;jettySize=auto;html=1;entryX=0.5;entryY=0;entryDx=0;entryDy=0;" parent="1" source="fFPUwwNfFdFCcCZWl5Em-5" target="fFPUwwNfFdFCcCZWl5Em-6" edge="1"><mxGeometry relative="1" as="geometry"/></mxCell><mxCell id="fFPUwwNfFdFCcCZWl5Em-5" value="테스팅" style="rounded=0;whiteSpace=wrap;html=1;" parent="1" vertex="1"><mxGeometry x="150" y="-350" width="170" height="90" as="geometry"/></mxCell><mxCell id="fFPUwwNfFdFCcCZWl5Em-11" style="edgeStyle=orthogonalEdgeStyle;rounded=0;orthogonalLoop=1;jettySize=auto;html=1;entryX=0.5;entryY=0;entryDx=0;entryDy=0;" parent="1" source="fFPUwwNfFdFCcCZWl5Em-6" target="fFPUwwNfFdFCcCZWl5Em-7" edge="1"><mxGeometry relative="1" as="geometry"/></mxCell><mxCell id="fFPUwwNfFdFCcCZWl5Em-6" value="배포" style="rounded=0;whiteSpace=wrap;html=1;" parent="1" vertex="1"><mxGeometry x="150" y="-210" width="170" height="90" as="geometry"/></mxCell><mxCell id="fFPUwwNfFdFCcCZWl5Em-7" value="모니터링" style="rounded=0;whiteSpace=wrap;html=1;" parent="1" vertex="1"><mxGeometry x="150" y="-80" width="170" height="90" as="geometry"/></mxCell><mxCell id="fFPUwwNfFdFCcCZWl5Em-12" value="요구사항 분석&lt;br&gt;와이어프레임&lt;br&gt;설계&lt;br&gt;구현" style="text;html=1;strokeColor=none;fillColor=none;align=center;verticalAlign=middle;whiteSpace=wrap;rounded=0;" parent="1" vertex="1"><mxGeometry x="350" y="-645" width="230" height="120" as="geometry"/></mxCell><mxCell id="fFPUwwNfFdFCcCZWl5Em-13" value="컴파일&lt;br&gt;패키징&lt;br&gt;세어링" style="text;html=1;strokeColor=none;fillColor=none;align=center;verticalAlign=middle;whiteSpace=wrap;rounded=0;" parent="1" vertex="1"><mxGeometry x="350" y="-505" width="230" height="120" as="geometry"/></mxCell><mxCell id="fFPUwwNfFdFCcCZWl5Em-14" value="Unit Testing&lt;br&gt;Integration Testing&lt;br&gt;System Testing" style="text;html=1;strokeColor=none;fillColor=none;align=center;verticalAlign=middle;whiteSpace=wrap;rounded=0;" parent="1" vertex="1"><mxGeometry x="340" y="-365" width="230" height="120" as="geometry"/></mxCell><mxCell id="fFPUwwNfFdFCcCZWl5Em-15" value="Dev/UAT/Staging/Prod&lt;br&gt;무중단배포 (Canary, Rolling, Blue-Green)" style="text;html=1;strokeColor=none;fillColor=none;align=center;verticalAlign=middle;whiteSpace=wrap;rounded=0;" parent="1" vertex="1"><mxGeometry x="350" y="-225" width="230" height="120" as="geometry"/></mxCell><mxCell id="fFPUwwNfFdFCcCZWl5Em-16" value="dashboard&lt;br&gt;Alert&lt;br&gt;Notification" style="text;html=1;strokeColor=none;fillColor=none;align=center;verticalAlign=middle;whiteSpace=wrap;rounded=0;" parent="1" vertex="1"><mxGeometry x="360" y="-105" width="230" height="120" as="geometry"/></mxCell><mxCell id="fFPUwwNfFdFCcCZWl5Em-17" value="" style="endArrow=classic;startArrow=classic;html=1;rounded=0;" parent="1" edge="1"><mxGeometry width="50" height="50" relative="1" as="geometry"><mxPoint x="80" y="-140" as="sourcePoint"/><mxPoint x="80" y="-570" as="targetPoint"/></mxGeometry></mxCell><mxCell id="fFPUwwNfFdFCcCZWl5Em-18" value="CI/CD" style="edgeLabel;html=1;align=center;verticalAlign=middle;resizable=0;points=[];" parent="fFPUwwNfFdFCcCZWl5Em-17" vertex="1" connectable="0"><mxGeometry x="-0.0047" y="-1" relative="1" as="geometry"><mxPoint as="offset"/></mxGeometry></mxCell></root></mxGraphModel></diagram><diagram name="dev" id="dg3nmbiDoOZZVwDWpjpv"><mxGraphModel dx="1275" dy="1232" grid="1" gridSize="10" guides="1" tooltips="1" connect="1" arrows="1" fold="1" page="0" pageScale="1" pageWidth="827" pageHeight="1169" math="0" shadow="0"><root><mxCell id="0"/><mxCell id="1" parent="0"/><mxCell id="hXMYLrPoUwlizuUFdG6P-1" style="edgeStyle=orthogonalEdgeStyle;rounded=0;orthogonalLoop=1;jettySize=auto;html=1;entryX=0.5;entryY=0;entryDx=0;entryDy=0;" parent="1" source="Dg1sk01Sxq4rAPDUsYwv-1" target="Dg1sk01Sxq4rAPDUsYwv-2" edge="1"><mxGeometry relative="1" as="geometry"/></mxCell><mxCell id="Dg1sk01Sxq4rAPDUsYwv-1" value="개발" style="rounded=0;whiteSpace=wrap;html=1;" parent="1" vertex="1"><mxGeometry x="-40" y="-420" width="170" height="90" as="geometry"/></mxCell><mxCell id="hXMYLrPoUwlizuUFdG6P-2" style="edgeStyle=orthogonalEdgeStyle;rounded=0;orthogonalLoop=1;jettySize=auto;html=1;entryX=0.5;entryY=0;entryDx=0;entryDy=0;" parent="1" source="Dg1sk01Sxq4rAPDUsYwv-2" target="Dg1sk01Sxq4rAPDUsYwv-3" edge="1"><mxGeometry relative="1" as="geometry"/></mxCell><mxCell id="Dg1sk01Sxq4rAPDUsYwv-2" value="요구사항 분석" style="rounded=0;whiteSpace=wrap;html=1;" parent="1" vertex="1"><mxGeometry x="-40" y="-270" width="170" height="90" as="geometry"/></mxCell><mxCell id="hXMYLrPoUwlizuUFdG6P-3" style="edgeStyle=orthogonalEdgeStyle;rounded=0;orthogonalLoop=1;jettySize=auto;html=1;entryX=0.5;entryY=0;entryDx=0;entryDy=0;" parent="1" source="Dg1sk01Sxq4rAPDUsYwv-3" target="Dg1sk01Sxq4rAPDUsYwv-12" edge="1"><mxGeometry relative="1" as="geometry"/></mxCell><mxCell id="Dg1sk01Sxq4rAPDUsYwv-3" value="와이어프레임" style="rounded=0;whiteSpace=wrap;html=1;dashed=1;" parent="1" vertex="1"><mxGeometry x="-40" y="-120" width="170" height="90" as="geometry"/></mxCell><mxCell id="hXMYLrPoUwlizuUFdG6P-4" style="edgeStyle=orthogonalEdgeStyle;rounded=0;orthogonalLoop=1;jettySize=auto;html=1;entryX=0.5;entryY=0;entryDx=0;entryDy=0;" parent="1" source="Dg1sk01Sxq4rAPDUsYwv-12" target="Dg1sk01Sxq4rAPDUsYwv-14" edge="1"><mxGeometry relative="1" as="geometry"/></mxCell><mxCell id="Dg1sk01Sxq4rAPDUsYwv-12" value="설계" style="rounded=0;whiteSpace=wrap;html=1;" parent="1" vertex="1"><mxGeometry x="-40" y="40" width="170" height="90" as="geometry"/></mxCell><mxCell id="Dg1sk01Sxq4rAPDUsYwv-13" value="GET /alarm&lt;br&gt;GET /alarm/&amp;lt;alarm_id&amp;gt;&lt;br&gt;POST /alarm/add/&amp;lt;alarm_id&amp;gt;" style="text;html=1;strokeColor=none;fillColor=none;align=center;verticalAlign=middle;whiteSpace=wrap;rounded=0;" parent="1" vertex="1"><mxGeometry x="190" y="10" width="280" height="150" as="geometry"/></mxCell><mxCell id="Dg1sk01Sxq4rAPDUsYwv-14" value="구현" style="rounded=0;whiteSpace=wrap;html=1;" parent="1" vertex="1"><mxGeometry x="-40" y="180" width="170" height="90" as="geometry"/></mxCell></root></mxGraphModel></diagram><diagram id="Rn3ssxaxPRkYAJslJ4ch" name="Service Architecture"><mxGraphModel dx="875" dy="432" grid="1" gridSize="10" guides="1" tooltips="1" connect="1" arrows="1" fold="1" page="1" pageScale="1" pageWidth="827" pageHeight="1169" math="0" shadow="0"><root><mxCell id="0"/><mxCell id="1" parent="0"/><mxCell id="E2OS3Ll9hKuhpFScME8J-1" value="UserService&lt;br&gt;(spring, docker)" style="rounded=0;whiteSpace=wrap;html=1;" parent="1" vertex="1"><mxGeometry x="340" y="490" width="120" height="60" as="geometry"/></mxCell><mxCell id="vu-hK86xlDIqN39XVzqL-70" style="edgeStyle=orthogonalEdgeStyle;rounded=0;orthogonalLoop=1;jettySize=auto;html=1;entryX=0.5;entryY=0;entryDx=0;entryDy=0;" parent="1" source="E2OS3Ll9hKuhpFScME8J-2" target="vu-hK86xlDIqN39XVzqL-69" edge="1"><mxGeometry relative="1" as="geometry"/></mxCell><mxCell id="E2OS3Ll9hKuhpFScME8J-2" value="Actor" style="shape=umlActor;verticalLabelPosition=bottom;verticalAlign=top;html=1;outlineConnect=0;" parent="1" vertex="1"><mxGeometry x="880" y="30" width="30" height="60" as="geometry"/></mxCell><mxCell id="E2OS3Ll9hKuhpFScME8J-4" value="Write DB" style="shape=cylinder3;whiteSpace=wrap;html=1;boundedLbl=1;backgroundOutline=1;size=15;" parent="1" vertex="1"><mxGeometry x="370" y="750" width="60" height="80" as="geometry"/></mxCell><mxCell id="E2OS3Ll9hKuhpFScME8J-5" style="edgeStyle=orthogonalEdgeStyle;rounded=0;orthogonalLoop=1;jettySize=auto;html=1;entryX=0.5;entryY=0;entryDx=0;entryDy=0;entryPerimeter=0;" parent="1" source="E2OS3Ll9hKuhpFScME8J-1" target="E2OS3Ll9hKuhpFScME8J-4" edge="1"><mxGeometry relative="1" as="geometry"/></mxCell><mxCell id="E2OS3Ll9hKuhpFScME8J-6" value="CRUD" style="edgeLabel;html=1;align=center;verticalAlign=middle;resizable=0;points=[];" parent="E2OS3Ll9hKuhpFScME8J-5" vertex="1" connectable="0"><mxGeometry x="-0.0186" relative="1" as="geometry"><mxPoint as="offset"/></mxGeometry></mxCell><mxCell id="vu-hK86xlDIqN39XVzqL-2" style="edgeStyle=orthogonalEdgeStyle;rounded=0;orthogonalLoop=1;jettySize=auto;html=1;entryX=0;entryY=0.5;entryDx=0;entryDy=0;" parent="1" source="vu-hK86xlDIqN39XVzqL-1" target="E2OS3Ll9hKuhpFScME8J-1" edge="1"><mxGeometry relative="1" as="geometry"/></mxCell><mxCell id="vu-hK86xlDIqN39XVzqL-1" value="Monitoring&lt;br&gt;(scouter, visualvm)" style="shape=parallelogram;perimeter=parallelogramPerimeter;whiteSpace=wrap;html=1;fixedSize=1;" parent="1" vertex="1"><mxGeometry x="70" y="490" width="130" height="60" as="geometry"/></mxCell><mxCell id="vu-hK86xlDIqN39XVzqL-3" value="Performance&lt;br&gt;Testing&lt;br&gt;(nGrinder)" style="ellipse;whiteSpace=wrap;html=1;" parent="1" vertex="1"><mxGeometry x="70" y="250" width="120" height="80" as="geometry"/></mxCell><mxCell id="vu-hK86xlDIqN39XVzqL-4" style="edgeStyle=orthogonalEdgeStyle;rounded=0;orthogonalLoop=1;jettySize=auto;html=1;entryX=0.167;entryY=0;entryDx=0;entryDy=0;entryPerimeter=0;" parent="1" source="vu-hK86xlDIqN39XVzqL-3" target="E2OS3Ll9hKuhpFScME8J-1" edge="1"><mxGeometry relative="1" as="geometry"/></mxCell><mxCell id="vu-hK86xlDIqN39XVzqL-5" value="UserService&lt;br&gt;(spring, docker)" style="rounded=0;whiteSpace=wrap;html=1;" parent="1" vertex="1"><mxGeometry x="350" y="500" width="120" height="60" as="geometry"/></mxCell><mxCell id="vu-hK86xlDIqN39XVzqL-6" value="UserService&lt;br&gt;(spring, docker)" style="rounded=0;whiteSpace=wrap;html=1;" parent="1" vertex="1"><mxGeometry x="360" y="510" width="120" height="60" as="geometry"/></mxCell><mxCell id="vu-hK86xlDIqN39XVzqL-7" value="Load Balancer&lt;br&gt;(nginx)" style="rounded=0;whiteSpace=wrap;html=1;" parent="1" vertex="1"><mxGeometry x="340" y="370" width="120" height="60" as="geometry"/></mxCell><mxCell id="vu-hK86xlDIqN39XVzqL-9" value="Read DB" style="shape=cylinder3;whiteSpace=wrap;html=1;boundedLbl=1;backgroundOutline=1;size=15;" parent="1" vertex="1"><mxGeometry x="490" y="750" width="60" height="80" as="geometry"/></mxCell><mxCell id="vu-hK86xlDIqN39XVzqL-10" style="edgeStyle=orthogonalEdgeStyle;rounded=0;orthogonalLoop=1;jettySize=auto;html=1;entryX=0;entryY=0.5;entryDx=0;entryDy=0;entryPerimeter=0;" parent="1" source="E2OS3Ll9hKuhpFScME8J-4" target="vu-hK86xlDIqN39XVzqL-9" edge="1"><mxGeometry relative="1" as="geometry"/></mxCell><mxCell id="vu-hK86xlDIqN39XVzqL-11" style="edgeStyle=orthogonalEdgeStyle;rounded=0;orthogonalLoop=1;jettySize=auto;html=1;entryX=0.5;entryY=0;entryDx=0;entryDy=0;entryPerimeter=0;" parent="1" source="vu-hK86xlDIqN39XVzqL-6" target="vu-hK86xlDIqN39XVzqL-9" edge="1"><mxGeometry relative="1" as="geometry"/></mxCell><mxCell id="vu-hK86xlDIqN39XVzqL-12" value="Read DB" style="shape=cylinder3;whiteSpace=wrap;html=1;boundedLbl=1;backgroundOutline=1;size=15;" parent="1" vertex="1"><mxGeometry x="500" y="760" width="60" height="80" as="geometry"/></mxCell><mxCell id="vu-hK86xlDIqN39XVzqL-16" value="Cache (Redis)" style="shape=process;whiteSpace=wrap;html=1;backgroundOutline=1;" parent="1" vertex="1"><mxGeometry x="360" y="600" width="180" height="60" as="geometry"/></mxCell><mxCell id="vu-hK86xlDIqN39XVzqL-18" value="OrderService&lt;br&gt;(spring, docker)" style="rounded=0;whiteSpace=wrap;html=1;" parent="1" vertex="1"><mxGeometry x="703" y="490" width="120" height="60" as="geometry"/></mxCell><mxCell id="vu-hK86xlDIqN39XVzqL-20" value="OrderService&lt;br&gt;(spring, docker)" style="rounded=0;whiteSpace=wrap;html=1;" parent="1" vertex="1"><mxGeometry x="713" y="500" width="120" height="60" as="geometry"/></mxCell><mxCell id="vu-hK86xlDIqN39XVzqL-24" style="edgeStyle=orthogonalEdgeStyle;rounded=0;orthogonalLoop=1;jettySize=auto;html=1;entryX=1;entryY=0.5;entryDx=0;entryDy=0;" parent="1" source="vu-hK86xlDIqN39XVzqL-21" target="vu-hK86xlDIqN39XVzqL-16" edge="1"><mxGeometry relative="1" as="geometry"><Array as="points"><mxPoint x="760" y="630"/></Array></mxGeometry></mxCell><mxCell id="vu-hK86xlDIqN39XVzqL-36" style="edgeStyle=orthogonalEdgeStyle;rounded=0;orthogonalLoop=1;jettySize=auto;html=1;" parent="1" source="vu-hK86xlDIqN39XVzqL-21" target="vu-hK86xlDIqN39XVzqL-34" edge="1"><mxGeometry relative="1" as="geometry"/></mxCell><mxCell id="vu-hK86xlDIqN39XVzqL-21" value="OrderService&lt;br&gt;(spring, docker)" style="rounded=0;whiteSpace=wrap;html=1;" parent="1" vertex="1"><mxGeometry x="723" y="510" width="120" height="60" as="geometry"/></mxCell><mxCell id="vu-hK86xlDIqN39XVzqL-23" style="edgeStyle=orthogonalEdgeStyle;rounded=0;orthogonalLoop=1;jettySize=auto;html=1;entryX=0.5;entryY=0;entryDx=0;entryDy=0;" parent="1" source="vu-hK86xlDIqN39XVzqL-22" target="vu-hK86xlDIqN39XVzqL-18" edge="1"><mxGeometry relative="1" as="geometry"/></mxCell><mxCell id="vu-hK86xlDIqN39XVzqL-22" value="Load Balancer&lt;br&gt;(nginx)" style="rounded=0;whiteSpace=wrap;html=1;" parent="1" vertex="1"><mxGeometry x="703" y="370" width="120" height="60" as="geometry"/></mxCell><mxCell id="vu-hK86xlDIqN39XVzqL-25" style="edgeStyle=orthogonalEdgeStyle;rounded=0;orthogonalLoop=1;jettySize=auto;html=1;entryX=0.5;entryY=1;entryDx=0;entryDy=0;" parent="1" source="vu-hK86xlDIqN39XVzqL-12" target="vu-hK86xlDIqN39XVzqL-21" edge="1"><mxGeometry relative="1" as="geometry"/></mxCell><mxCell id="vu-hK86xlDIqN39XVzqL-30" style="edgeStyle=orthogonalEdgeStyle;rounded=0;orthogonalLoop=1;jettySize=auto;html=1;entryX=0.5;entryY=0;entryDx=0;entryDy=0;" parent="1" source="vu-hK86xlDIqN39XVzqL-26" target="vu-hK86xlDIqN39XVzqL-7" edge="1"><mxGeometry relative="1" as="geometry"/></mxCell><mxCell id="vu-hK86xlDIqN39XVzqL-31" style="edgeStyle=orthogonalEdgeStyle;rounded=0;orthogonalLoop=1;jettySize=auto;html=1;entryX=0.5;entryY=0;entryDx=0;entryDy=0;" parent="1" source="vu-hK86xlDIqN39XVzqL-26" target="vu-hK86xlDIqN39XVzqL-22" edge="1"><mxGeometry relative="1" as="geometry"/></mxCell><mxCell id="vu-hK86xlDIqN39XVzqL-26" value="API Gateway" style="rounded=0;whiteSpace=wrap;html=1;" parent="1" vertex="1"><mxGeometry x="470" y="260" width="120" height="60" as="geometry"/></mxCell><mxCell id="vu-hK86xlDIqN39XVzqL-34" value="Messaging/Event&lt;br&gt;(RabbitMQ, Kafka)" style="shape=process;whiteSpace=wrap;html=1;backgroundOutline=1;" parent="1" vertex="1"><mxGeometry x="600" y="730" width="130" height="60" as="geometry"/></mxCell><mxCell id="vu-hK86xlDIqN39XVzqL-35" style="edgeStyle=orthogonalEdgeStyle;rounded=0;orthogonalLoop=1;jettySize=auto;html=1;entryX=0.295;entryY=0.002;entryDx=0;entryDy=0;entryPerimeter=0;" parent="1" source="vu-hK86xlDIqN39XVzqL-6" target="vu-hK86xlDIqN39XVzqL-34" edge="1"><mxGeometry relative="1" as="geometry"/></mxCell><mxCell id="vu-hK86xlDIqN39XVzqL-37" value="UserService&lt;br&gt;(spring, docker)" style="rounded=0;whiteSpace=wrap;html=1;" parent="1" vertex="1"><mxGeometry x="350" y="500" width="120" height="60" as="geometry"/></mxCell><mxCell id="vu-hK86xlDIqN39XVzqL-38" value="UserService&lt;br&gt;(spring, docker)" style="rounded=0;whiteSpace=wrap;html=1;" parent="1" vertex="1"><mxGeometry x="360" y="510" width="120" height="60" as="geometry"/></mxCell><mxCell id="vu-hK86xlDIqN39XVzqL-39" value="UserService&lt;br&gt;(spring, docker)" style="rounded=0;whiteSpace=wrap;html=1;" parent="1" vertex="1"><mxGeometry x="370" y="520" width="120" height="60" as="geometry"/></mxCell><mxCell id="vu-hK86xlDIqN39XVzqL-40" value="Load Balancer&lt;br&gt;(nginx)" style="rounded=0;whiteSpace=wrap;html=1;" parent="1" vertex="1"><mxGeometry x="350" y="380" width="120" height="60" as="geometry"/></mxCell><mxCell id="vu-hK86xlDIqN39XVzqL-41" value="OrderService&lt;br&gt;(spring, docker)" style="rounded=0;whiteSpace=wrap;html=1;" parent="1" vertex="1"><mxGeometry x="713" y="500" width="120" height="60" as="geometry"/></mxCell><mxCell id="vu-hK86xlDIqN39XVzqL-42" value="OrderService&lt;br&gt;(spring, docker)" style="rounded=0;whiteSpace=wrap;html=1;" parent="1" vertex="1"><mxGeometry x="723" y="510" width="120" height="60" as="geometry"/></mxCell><mxCell id="vu-hK86xlDIqN39XVzqL-43" value="OrderService&lt;br&gt;(spring, docker)" style="rounded=0;whiteSpace=wrap;html=1;" parent="1" vertex="1"><mxGeometry x="733" y="520" width="120" height="60" as="geometry"/></mxCell><mxCell id="vu-hK86xlDIqN39XVzqL-44" value="Load Balancer&lt;br&gt;(nginx)" style="rounded=0;whiteSpace=wrap;html=1;" parent="1" vertex="1"><mxGeometry x="713" y="380" width="120" height="60" as="geometry"/></mxCell><mxCell id="vu-hK86xlDIqN39XVzqL-45" value="API Gateway" style="rounded=0;whiteSpace=wrap;html=1;" parent="1" vertex="1"><mxGeometry x="480" y="270" width="120" height="60" as="geometry"/></mxCell><mxCell id="vu-hK86xlDIqN39XVzqL-46" value="UserService&lt;br&gt;(spring, docker)" style="rounded=0;whiteSpace=wrap;html=1;" parent="1" vertex="1"><mxGeometry x="984" y="500" width="120" height="60" as="geometry"/></mxCell><mxCell id="vu-hK86xlDIqN39XVzqL-47" value="UserService&lt;br&gt;(spring, docker)" style="rounded=0;whiteSpace=wrap;html=1;" parent="1" vertex="1"><mxGeometry x="994" y="510" width="120" height="60" as="geometry"/></mxCell><mxCell id="vu-hK86xlDIqN39XVzqL-48" value="UserService&lt;br&gt;(spring, docker)" style="rounded=0;whiteSpace=wrap;html=1;" parent="1" vertex="1"><mxGeometry x="1004" y="520" width="120" height="60" as="geometry"/></mxCell><mxCell id="vu-hK86xlDIqN39XVzqL-49" value="Load Balancer&lt;br&gt;(nginx)" style="rounded=0;whiteSpace=wrap;html=1;" parent="1" vertex="1"><mxGeometry x="984" y="380" width="120" height="60" as="geometry"/></mxCell><mxCell id="vu-hK86xlDIqN39XVzqL-50" value="OrderService&lt;br&gt;(spring, docker)" style="rounded=0;whiteSpace=wrap;html=1;" parent="1" vertex="1"><mxGeometry x="1347" y="500" width="120" height="60" as="geometry"/></mxCell><mxCell id="vu-hK86xlDIqN39XVzqL-51" value="OrderService&lt;br&gt;(spring, docker)" style="rounded=0;whiteSpace=wrap;html=1;" parent="1" vertex="1"><mxGeometry x="1357" y="510" width="120" height="60" as="geometry"/></mxCell><mxCell id="vu-hK86xlDIqN39XVzqL-52" value="OrderService&lt;br&gt;(spring, docker)" style="rounded=0;whiteSpace=wrap;html=1;" parent="1" vertex="1"><mxGeometry x="1367" y="520" width="120" height="60" as="geometry"/></mxCell><mxCell id="vu-hK86xlDIqN39XVzqL-53" style="edgeStyle=orthogonalEdgeStyle;rounded=0;orthogonalLoop=1;jettySize=auto;html=1;entryX=0.5;entryY=0;entryDx=0;entryDy=0;" parent="1" source="vu-hK86xlDIqN39XVzqL-54" target="vu-hK86xlDIqN39XVzqL-50" edge="1"><mxGeometry relative="1" as="geometry"/></mxCell><mxCell id="vu-hK86xlDIqN39XVzqL-54" value="Load Balancer&lt;br&gt;(nginx)" style="rounded=0;whiteSpace=wrap;html=1;" parent="1" vertex="1"><mxGeometry x="1347" y="380" width="120" height="60" as="geometry"/></mxCell><mxCell id="vu-hK86xlDIqN39XVzqL-55" style="edgeStyle=orthogonalEdgeStyle;rounded=0;orthogonalLoop=1;jettySize=auto;html=1;entryX=0.5;entryY=0;entryDx=0;entryDy=0;" parent="1" source="vu-hK86xlDIqN39XVzqL-57" target="vu-hK86xlDIqN39XVzqL-49" edge="1"><mxGeometry relative="1" as="geometry"/></mxCell><mxCell id="vu-hK86xlDIqN39XVzqL-56" style="edgeStyle=orthogonalEdgeStyle;rounded=0;orthogonalLoop=1;jettySize=auto;html=1;entryX=0.5;entryY=0;entryDx=0;entryDy=0;" parent="1" source="vu-hK86xlDIqN39XVzqL-57" target="vu-hK86xlDIqN39XVzqL-54" edge="1"><mxGeometry relative="1" as="geometry"/></mxCell><mxCell id="vu-hK86xlDIqN39XVzqL-57" value="API Gateway" style="rounded=0;whiteSpace=wrap;html=1;" parent="1" vertex="1"><mxGeometry x="1114" y="270" width="120" height="60" as="geometry"/></mxCell><mxCell id="vu-hK86xlDIqN39XVzqL-58" value="UserService&lt;br&gt;(spring, docker)" style="rounded=0;whiteSpace=wrap;html=1;" parent="1" vertex="1"><mxGeometry x="994" y="510" width="120" height="60" as="geometry"/></mxCell><mxCell id="vu-hK86xlDIqN39XVzqL-59" value="UserService&lt;br&gt;(spring, docker)" style="rounded=0;whiteSpace=wrap;html=1;" parent="1" vertex="1"><mxGeometry x="1004" y="520" width="120" height="60" as="geometry"/></mxCell><mxCell id="vu-hK86xlDIqN39XVzqL-67" style="edgeStyle=orthogonalEdgeStyle;rounded=0;orthogonalLoop=1;jettySize=auto;html=1;entryX=1;entryY=0.5;entryDx=0;entryDy=0;" parent="1" source="vu-hK86xlDIqN39XVzqL-60" target="vu-hK86xlDIqN39XVzqL-34" edge="1"><mxGeometry relative="1" as="geometry"/></mxCell><mxCell id="vu-hK86xlDIqN39XVzqL-60" value="UserService&lt;br&gt;(spring, docker)" style="rounded=0;whiteSpace=wrap;html=1;" parent="1" vertex="1"><mxGeometry x="1014" y="530" width="120" height="60" as="geometry"/></mxCell><mxCell id="vu-hK86xlDIqN39XVzqL-61" value="Load Balancer&lt;br&gt;(nginx)" style="rounded=0;whiteSpace=wrap;html=1;" parent="1" vertex="1"><mxGeometry x="994" y="390" width="120" height="60" as="geometry"/></mxCell><mxCell id="vu-hK86xlDIqN39XVzqL-62" value="OrderService&lt;br&gt;(spring, docker)" style="rounded=0;whiteSpace=wrap;html=1;" parent="1" vertex="1"><mxGeometry x="1357" y="510" width="120" height="60" as="geometry"/></mxCell><mxCell id="vu-hK86xlDIqN39XVzqL-63" value="OrderService&lt;br&gt;(spring, docker)" style="rounded=0;whiteSpace=wrap;html=1;" parent="1" vertex="1"><mxGeometry x="1367" y="520" width="120" height="60" as="geometry"/></mxCell><mxCell id="vu-hK86xlDIqN39XVzqL-64" value="OrderService&lt;br&gt;(spring, docker)" style="rounded=0;whiteSpace=wrap;html=1;" parent="1" vertex="1"><mxGeometry x="1377" y="530" width="120" height="60" as="geometry"/></mxCell><mxCell id="vu-hK86xlDIqN39XVzqL-65" value="Load Balancer&lt;br&gt;(nginx)" style="rounded=0;whiteSpace=wrap;html=1;" parent="1" vertex="1"><mxGeometry x="1357" y="390" width="120" height="60" as="geometry"/></mxCell><mxCell id="vu-hK86xlDIqN39XVzqL-66" value="API Gateway" style="rounded=0;whiteSpace=wrap;html=1;" parent="1" vertex="1"><mxGeometry x="1124" y="280" width="120" height="60" as="geometry"/></mxCell><mxCell id="vu-hK86xlDIqN39XVzqL-71" style="edgeStyle=orthogonalEdgeStyle;rounded=0;orthogonalLoop=1;jettySize=auto;html=1;" parent="1" source="vu-hK86xlDIqN39XVzqL-69" target="vu-hK86xlDIqN39XVzqL-26" edge="1"><mxGeometry relative="1" as="geometry"/></mxCell><mxCell id="vu-hK86xlDIqN39XVzqL-72" style="edgeStyle=orthogonalEdgeStyle;rounded=0;orthogonalLoop=1;jettySize=auto;html=1;entryX=0.5;entryY=0;entryDx=0;entryDy=0;" parent="1" source="vu-hK86xlDIqN39XVzqL-69" target="vu-hK86xlDIqN39XVzqL-57" edge="1"><mxGeometry relative="1" as="geometry"/></mxCell><mxCell id="vu-hK86xlDIqN39XVzqL-69" value="DNS" style="rounded=0;whiteSpace=wrap;html=1;" parent="1" vertex="1"><mxGeometry x="835" y="150" width="120" height="60" as="geometry"/></mxCell></root></mxGraphModel></diagram></mxfile>